<svg width="59" height="54" viewBox="0 0 59 54" fill="none" xmlns="http://www.w3.org/2000/svg">
<path opacity="0.5" d="M58.2 2.69999L56.7 13.1C53.6333 12.8333 51.2 13.3667 49.4 14.7C47.6 15.9667 46.3667 17.8 45.7 20.2C45.1 22.5333 45 25.2 45.4 28.2H58.2V53.9H33.5V27.2C33.5 18.4667 35.5667 11.8667 39.7 7.4C43.8333 2.86666 50 1.29999 58.2 2.69999ZM24.7 2.69999L23.2 13.1C20.1333 12.8333 17.7 13.3667 15.9 14.7C14.1 15.9667 12.8667 17.8 12.2 20.2C11.6 22.5333 11.5 25.2 11.9 28.2H24.7V53.9H1.13249e-06V27.2C1.13249e-06 18.4667 2.06667 11.8667 6.2 7.4C10.3333 2.86666 16.5 1.29999 24.7 2.69999Z" fill="#F9BFFC"/>
</svg>
